#define BDASH_2_width 8
#define BDASH_2_height 8
static unsigned char BDASH_2_bits[] = {
0x10, 
0x20, 
0x40, 
0x80, 
0x01, 
0x02, 
0x00, 
0x00, 
}