#define BDASH_1_width 8
#define BDASH_1_height 8
static unsigned char BDASH_1_bits[] = {
0x04, 
0x08, 
0x10, 
0x20, 
0x40, 
0x80, 
0x00, 
0x00, 
}