#define BRICK_width 16
#define BRICK_height 16
static unsigned char BRICK_bits[] = {
0xFF, 0xFF, 
0x04, 0x04, 
0x04, 0x04, 
0x04, 0x04, 
0xFF, 0xFF, 
0x40, 0x40, 
0x40, 0x40, 
0x40, 0x40, 
0xFF, 0xFF, 
0x04, 0x04, 
0x04, 0x04, 
0x04, 0x04, 
0xFF, 0xFF, 
0x40, 0x40, 
0x40, 0x40, 
0x40, 0x40, 
}