#define CIRCLES_width 16
#define CIRCLES_height 16
static unsigned char CIRCLES_bits[] = {
0x00, 0x00, 
0x00, 0x00, 
0x00, 0x00, 
0x70, 0x00, 
0x88, 0x00, 
0x04, 0x01, 
0x02, 0x02, 
0x02, 0x02, 
0x02, 0x02, 
0x04, 0x01, 
0x88, 0x00, 
0x70, 0x00, 
0x00, 0x00, 
0x00, 0x00, 
0x00, 0x00, 
0x00, 0x00, 
}