#define CIRCLES_1_width 16
#define CIRCLES_1_height 16
static unsigned char CIRCLES_1_bits[] = {
0x00, 0x00, 
0x00, 0x00, 
0x00, 0x00, 
0x00, 0x07, 
0x80, 0x08, 
0x40, 0x10, 
0x20, 0x20, 
0x20, 0x20, 
0x20, 0x20, 
0x40, 0x10, 
0x80, 0x08, 
0x00, 0x07, 
0x00, 0x00, 
0x00, 0x00, 
0x00, 0x00, 
0x00, 0x00, 
}