#define CLK_width 16
#define CLK_height 16
static unsigned char CLK_bits[] = {
0x00, 0x00, 
0x00, 0x00, 
0x00, 0x00, 
0x00, 0x00, 
0x80, 0xFF, 
0x80, 0x80, 
0x80, 0x80, 
0x80, 0x80, 
0x80, 0x80, 
0x80, 0x80, 
0x80, 0x80, 
0xFF, 0x80, 
0x00, 0x00, 
0x00, 0x00, 
0x00, 0x00, 
0x00, 0x00, 
}