#define DAGGER_width 16
#define DAGGER_height 16
static unsigned char DAGGER_bits[] = {
0x00, 0x00, 
0x04, 0x04, 
0x04, 0x04, 
0x04, 0x04, 
0x1F, 0x1F, 
0x04, 0x04, 
0x04, 0x04, 
0x04, 0x04, 
0x00, 0x00, 
0x20, 0x20, 
0x20, 0x20, 
0x20, 0x20, 
0xF8, 0xF8, 
0x20, 0x20, 
0x20, 0x20, 
0x20, 0x20, 
}