#define DENSEDOT_width 32
#define DENSEDOT_height 32
static unsigned char DENSEDOT_bits[] = {
0x03, 0x00, 0x00, 0x00, 
0x03, 0x00, 0x00, 0x00, 
0xC0, 0x00, 0x60, 0x00, 
0xC0, 0x00, 0x60, 0x00, 
0x00, 0x00, 0x00, 0x30, 
0x00, 0x03, 0x18, 0x30, 
0x00, 0x03, 0x18, 0x00, 
0x03, 0xC0, 0x00, 0x00, 
0x03, 0xC0, 0x00, 0x00, 
0x60, 0x00, 0x00, 0x00, 
0x60, 0x00, 0x00, 0x0C, 
0x00, 0x00, 0x00, 0x0C, 
0x00, 0x00, 0x00, 0x00, 
0x03, 0x00, 0x60, 0x00, 
0x03, 0xC0, 0x60, 0x00, 
0x00, 0xC0, 0x00, 0x00, 
0x60, 0x00, 0x00, 0x00, 
0x60, 0x00, 0x00, 0x00, 
0x00, 0x00, 0x00, 0x00, 
0x00, 0x18, 0x00, 0x06, 
0x00, 0x18, 0x00, 0x06, 
0x03, 0x00, 0x0C, 0x00, 
0x03, 0x00, 0x0C, 0x00, 
0x00, 0x00, 0x00, 0x00, 
0x00, 0x00, 0x00, 0x00, 
0x80, 0x01, 0x30, 0x0C, 
0x80, 0x31, 0x30, 0x0C, 
0x00, 0x30, 0x00, 0x00, 
0x00, 0x00, 0x00, 0x00, 
0x18, 0x00, 0x0C, 0x00, 
0x18, 0x00, 0x0C, 0x00, 
0x00, 0x00, 0x00, 0x00, 
}