#define DNI_1_width 32
#define DNI_1_height 32
static unsigned char DNI_1_bits[] = {
0x00, 0x00, 0x00, 0x00, 
0x00, 0x00, 0x00, 0x00, 
0x00, 0x00, 0x00, 0x00, 
0x70, 0x20, 0x82, 0x0F, 
0x90, 0x60, 0x02, 0x02, 
0x10, 0xA1, 0x02, 0x02, 
0x10, 0xA1, 0x02, 0x02, 
0x10, 0x21, 0x03, 0x02, 
0x90, 0x20, 0x03, 0x02, 
0x70, 0x20, 0x82, 0x0F, 
0x00, 0x00, 0x00, 0x00, 
0x00, 0x00, 0x00, 0x00, 
0x00, 0x00, 0x00, 0x00, 
0x00, 0x00, 0x00, 0x00, 
0x00, 0x00, 0x00, 0x00, 
0x00, 0x00, 0x00, 0x00, 
0x00, 0x00, 0x00, 0x00, 
0x00, 0x00, 0x00, 0x00, 
0x00, 0x00, 0x00, 0x00, 
0x00, 0x00, 0x00, 0x00, 
0x00, 0x00, 0x00, 0x00, 
0x00, 0x00, 0x00, 0x00, 
0x00, 0x00, 0x00, 0x00, 
0x00, 0x00, 0x00, 0x00, 
0x00, 0x00, 0x00, 0x00, 
0x00, 0x00, 0x00, 0x00, 
0x00, 0x00, 0x00, 0x00, 
0x00, 0x00, 0x00, 0x00, 
0x00, 0x00, 0x00, 0x00, 
0x00, 0x00, 0x00, 0x00, 
0x00, 0x00, 0x00, 0x00, 
0x00, 0x00, 0x00, 0x00, 
}