#define DOT2A_width 16
#define DOT2A_height 16
static unsigned char DOT2A_bits[] = {
0x00, 0x00, 
0x00, 0x00, 
0x00, 0x00, 
0x40, 0x40, 
0x00, 0x00, 
0x00, 0x00, 
0x00, 0x00, 
0x04, 0x04, 
0x00, 0x00, 
0x00, 0x00, 
0x00, 0x00, 
0x40, 0x40, 
0x00, 0x00, 
0x00, 0x00, 
0x00, 0x00, 
0x04, 0x04, 
}