#define DOT2_2_width 16
#define DOT2_2_height 16
static unsigned char DOT2_2_bits[] = {
0x00, 0x00, 
0x00, 0x00, 
0x00, 0x00, 
0x80, 0x03, 
0x80, 0x03, 
0x80, 0x03, 
0x00, 0x00, 
0x00, 0x00, 
0x00, 0x00, 
0x00, 0x00, 
0x00, 0x00, 
0x00, 0x00, 
0x00, 0x00, 
0x00, 0x00, 
0x00, 0x00, 
0x00, 0x00, 
}