#define DOT2B_width 16
#define DOT2B_height 16
static unsigned char DOT2B_bits[] = {
0x00, 0x00, 
0x00, 0x00, 
0x00, 0x00, 
0x01, 0x01, 
0x00, 0x00, 
0x00, 0x00, 
0x00, 0x00, 
0x10, 0x10, 
0x00, 0x00, 
0x00, 0x00, 
0x00, 0x00, 
0x01, 0x01, 
0x00, 0x00, 
0x00, 0x00, 
0x00, 0x00, 
0x10, 0x10, 
}