#define DOT2_1_width 16
#define DOT2_1_height 16
static unsigned char DOT2_1_bits[] = {
0x00, 0x00, 
0x00, 0x00, 
0x00, 0x00, 
0xE0, 0x00, 
0xE0, 0x00, 
0xE0, 0x00, 
0x00, 0x00, 
0x00, 0x00, 
0x00, 0x00, 
0x00, 0x00, 
0x00, 0x00, 
0x00, 0x00, 
0x00, 0x00, 
0x00, 0x00, 
0x00, 0x00, 
0x00, 0x00, 
}