#define EMPTYSET_1_width 16
#define EMPTYSET_1_height 16
static unsigned char EMPTYSET_1_bits[] = {
0x00, 0x00, 
0x00, 0x46, 
0x80, 0x39, 
0x40, 0x30, 
0x40, 0x28, 
0x20, 0x48, 
0x20, 0x44, 
0x40, 0x22, 
0x40, 0x21, 
0x80, 0x19, 
0x40, 0x06, 
0x00, 0x00, 
0x00, 0x00, 
0x00, 0x00, 
0x00, 0x00, 
0x00, 0x00, 
}