#define EMPTYSET_width 16
#define EMPTYSET_height 16
static unsigned char EMPTYSET_bits[] = {
0x00, 0x00, 
0x60, 0x04, 
0x98, 0x03, 
0x04, 0x03, 
0x84, 0x02, 
0x82, 0x04, 
0x42, 0x04, 
0x24, 0x02, 
0x14, 0x02, 
0x98, 0x01, 
0x64, 0x00, 
0x00, 0x00, 
0x00, 0x00, 
0x00, 0x00, 
0x00, 0x00, 
0x00, 0x00, 
}