#define FDASH_width 8
#define FDASH_height 8
static unsigned char FDASH_bits[] = {
0x20, 
0x10, 
0x08, 
0x04, 
0x02, 
0x01, 
0x00, 
0x00, 
}