#define FDASH_2_width 8
#define FDASH_2_height 8
static unsigned char FDASH_2_bits[] = {
0x02, 
0x01, 
0x80, 
0x40, 
0x20, 
0x10, 
0x00, 
0x00, 
}