#define GND_width 16
#define GND_height 16
static unsigned char GND_bits[] = {
0x00, 0x00, 
0x00, 0x00, 
0x00, 0x00, 
0x80, 0x00, 
0x80, 0x00, 
0x80, 0x00, 
0x80, 0x00, 
0xFC, 0x1F, 
0x08, 0x08, 
0x10, 0x04, 
0x20, 0x02, 
0x40, 0x01, 
0x80, 0x00, 
0x00, 0x00, 
0x00, 0x00, 
0x00, 0x00, 
}