#define GRID_1_width 16
#define GRID_1_height 16
static unsigned char GRID_1_bits[] = {
0x22, 0x22, 
0xFF, 0xFF, 
0x22, 0x22, 
0x22, 0x22, 
0x22, 0x22, 
0xFF, 0xFF, 
0x22, 0x22, 
0x22, 0x22, 
0x22, 0x22, 
0xFF, 0xFF, 
0x22, 0x22, 
0x22, 0x22, 
0x22, 0x22, 
0xFF, 0xFF, 
0x22, 0x22, 
0x22, 0x22, 
}