#define GRID_width 16
#define GRID_height 16
static unsigned char GRID_bits[] = {
0x88, 0x88, 
0x88, 0x88, 
0x88, 0x88, 
0xFF, 0xFF, 
0x88, 0x88, 
0x88, 0x88, 
0x88, 0x88, 
0xFF, 0xFF, 
0x88, 0x88, 
0x88, 0x88, 
0x88, 0x88, 
0xFF, 0xFF, 
0x88, 0x88, 
0x88, 0x88, 
0x88, 0x88, 
0xFF, 0xFF, 
}