#define HCURB_width 16
#define HCURB_height 16
static unsigned char HCURB_bits[] = {
0x00, 0x00, 
0x00, 0x00, 
0xF8, 0xF8, 
0x88, 0x88, 
0x88, 0x88, 
0x8F, 0x8F, 
0x00, 0x00, 
0x00, 0x00, 
0x00, 0x00, 
0x00, 0x00, 
0xF8, 0xF8, 
0x88, 0x88, 
0x88, 0x88, 
0x8F, 0x8F, 
0x00, 0x00, 
0x00, 0x00, 
}