#define HDASH_2_width 8
#define HDASH_2_height 8
static unsigned char HDASH_2_bits[] = {
0x00, 
0x00, 
0x3F, 
0x00, 
0x00, 
0x00, 
0x00, 
0x00, 
}