#define HLINE_1_width 16
#define HLINE_1_height 16
static unsigned char HLINE_1_bits[] = {
0x00, 0x00, 
0xFF, 0xFF, 
0x00, 0x00, 
0x00, 0x00, 
0x00, 0x00, 
0xFF, 0xFF, 
0x00, 0x00, 
0x00, 0x00, 
0x00, 0x00, 
0xFF, 0xFF, 
0x00, 0x00, 
0x00, 0x00, 
0x00, 0x00, 
0xFF, 0xFF, 
0x00, 0x00, 
0x00, 0x00, 
}