#define HLINE_width 16
#define HLINE_height 16
static unsigned char HLINE_bits[] = {
0x00, 0x00, 
0x00, 0x00, 
0x00, 0x00, 
0xFF, 0xFF, 
0x00, 0x00, 
0x00, 0x00, 
0x00, 0x00, 
0xFF, 0xFF, 
0x00, 0x00, 
0x00, 0x00, 
0x00, 0x00, 
0xFF, 0xFF, 
0x00, 0x00, 
0x00, 0x00, 
0x00, 0x00, 
0xFF, 0xFF, 
}