#define HZIGZAG_1_width 16
#define HZIGZAG_1_height 16
static unsigned char HZIGZAG_1_bits[] = {
0x0C, 0x0C, 
0x10, 0x10, 
0x60, 0x60, 
0x80, 0x80, 
0x03, 0x03, 
0x04, 0x04, 
0x18, 0x18, 
0x20, 0x20, 
0xC0, 0xC0, 
0x01, 0x01, 
0x06, 0x06, 
0x08, 0x08, 
0x30, 0x30, 
0x40, 0x40, 
0x81, 0x81, 
0x02, 0x02, 
}