#define INVERTCURB_width 16
#define INVERTCURB_height 16
static unsigned char INVERTCURB_bits[] = {
0xFF, 0xFF, 
0xFF, 0xFF, 
0x07, 0x07, 
0x77, 0x77, 
0x77, 0x77, 
0x70, 0x70, 
0xFF, 0xFF, 
0xFF, 0xFF, 
0xFF, 0xFF, 
0xFF, 0xFF, 
0x07, 0x07, 
0x77, 0x77, 
0x77, 0x77, 
0x70, 0x70, 
0xFF, 0xFF, 
0xFF, 0xFF, 
}