#define INVERTDAGGER_width 16
#define INVERTDAGGER_height 16
static unsigned char INVERTDAGGER_bits[] = {
0xFF, 0xFF, 
0xFB, 0xFB, 
0xFB, 0xFB, 
0xFB, 0xFB, 
0xE0, 0xE0, 
0xFB, 0xFB, 
0xFB, 0xFB, 
0xFB, 0xFB, 
0xFF, 0xFF, 
0xDF, 0xDF, 
0xDF, 0xDF, 
0xDF, 0xDF, 
0x07, 0x07, 
0xDF, 0xDF, 
0xDF, 0xDF, 
0xDF, 0xDF, 
}