#define N2_width 32
#define N2_height 32
static unsigned char N2_bits[] = {
0x00, 0x00, 0x00, 0x00, 
0x00, 0x00, 0x00, 0x00, 
0x00, 0x00, 0x00, 0x00, 
0x00, 0x00, 0x00, 0x00, 
0x00, 0x00, 0x00, 0x00, 
0x38, 0x00, 0x00, 0x00, 
0x48, 0x00, 0x00, 0x00, 
0x40, 0x00, 0x00, 0x00, 
0x20, 0x00, 0x00, 0x00, 
0x10, 0x00, 0x00, 0x00, 
0x08, 0x00, 0x00, 0x00, 
0x78, 0x00, 0x00, 0x00, 
0x00, 0x00, 0x00, 0x00, 
0x00, 0x00, 0x00, 0x00, 
0x00, 0x00, 0x00, 0x00, 
0x38, 0x00, 0x00, 0x00, 
0x48, 0x00, 0x00, 0x00, 
0x40, 0x00, 0x00, 0x00, 
0x20, 0x00, 0x00, 0x00, 
0x10, 0x00, 0x00, 0x00, 
0x08, 0x00, 0x00, 0x00, 
0x78, 0x00, 0x00, 0x00, 
0x00, 0x00, 0x00, 0x00, 
0x00, 0x00, 0x00, 0x00, 
0x00, 0x00, 0x00, 0x00, 
0x38, 0x00, 0x00, 0x00, 
0x48, 0x00, 0x00, 0x00, 
0x40, 0x00, 0x00, 0x00, 
0x20, 0x00, 0x00, 0x00, 
0x10, 0x00, 0x00, 0x00, 
0x08, 0x00, 0x00, 0x00, 
0x78, 0x00, 0x00, 0x00, 
}