#define N2_1_width 32
#define N2_1_height 32
static unsigned char N2_1_bits[] = {
0x00, 0x00, 0x00, 0x00, 
0x00, 0x00, 0x00, 0x00, 
0x00, 0x00, 0x00, 0x00, 
0x00, 0x00, 0x00, 0x00, 
0x00, 0x00, 0x00, 0x00, 
0x00, 0x07, 0x00, 0x00, 
0x00, 0x09, 0x00, 0x00, 
0x00, 0x08, 0x00, 0x00, 
0x00, 0x04, 0x00, 0x00, 
0x00, 0x02, 0x00, 0x00, 
0x00, 0x01, 0x00, 0x00, 
0x00, 0x0F, 0x00, 0x00, 
0x00, 0x00, 0x00, 0x00, 
0x00, 0x00, 0x00, 0x00, 
0x00, 0x00, 0x00, 0x00, 
0x00, 0x07, 0x00, 0x00, 
0x00, 0x09, 0x00, 0x00, 
0x00, 0x08, 0x00, 0x00, 
0x00, 0x04, 0x00, 0x00, 
0x00, 0x02, 0x00, 0x00, 
0x00, 0x01, 0x00, 0x00, 
0x00, 0x0F, 0x00, 0x00, 
0x00, 0x00, 0x00, 0x00, 
0x00, 0x00, 0x00, 0x00, 
0x00, 0x00, 0x00, 0x00, 
0x00, 0x07, 0x00, 0x00, 
0x00, 0x09, 0x00, 0x00, 
0x00, 0x08, 0x00, 0x00, 
0x00, 0x04, 0x00, 0x00, 
0x00, 0x02, 0x00, 0x00, 
0x00, 0x01, 0x00, 0x00, 
0x00, 0x0F, 0x00, 0x00, 
}