#define N2_2_width 32
#define N2_2_height 32
static unsigned char N2_2_bits[] = {
0x00, 0x00, 0x00, 0x00, 
0x00, 0x00, 0x00, 0x00, 
0x00, 0x00, 0x00, 0x00, 
0x00, 0x00, 0x00, 0x00, 
0x00, 0x00, 0x00, 0x00, 
0x00, 0xE0, 0x00, 0x00, 
0x00, 0x20, 0x01, 0x00, 
0x00, 0x00, 0x01, 0x00, 
0x00, 0x80, 0x00, 0x00, 
0x00, 0x40, 0x00, 0x00, 
0x00, 0x20, 0x00, 0x00, 
0x00, 0xE0, 0x01, 0x00, 
0x00, 0x00, 0x00, 0x00, 
0x00, 0x00, 0x00, 0x00, 
0x00, 0x00, 0x00, 0x00, 
0x00, 0xE0, 0x00, 0x00, 
0x00, 0x20, 0x01, 0x00, 
0x00, 0x00, 0x01, 0x00, 
0x00, 0x80, 0x00, 0x00, 
0x00, 0x40, 0x00, 0x00, 
0x00, 0x20, 0x00, 0x00, 
0x00, 0xE0, 0x01, 0x00, 
0x00, 0x00, 0x00, 0x00, 
0x00, 0x00, 0x00, 0x00, 
0x00, 0x00, 0x00, 0x00, 
0x00, 0xE0, 0x00, 0x00, 
0x00, 0x20, 0x01, 0x00, 
0x00, 0x00, 0x01, 0x00, 
0x00, 0x80, 0x00, 0x00, 
0x00, 0x40, 0x00, 0x00, 
0x00, 0x20, 0x00, 0x00, 
0x00, 0xE0, 0x01, 0x00, 
}