#define N2_3_width 32
#define N2_3_height 32
static unsigned char N2_3_bits[] = {
0x00, 0x00, 0x00, 0x00, 
0x00, 0x00, 0x00, 0x00, 
0x00, 0x00, 0x00, 0x00, 
0x00, 0x00, 0x00, 0x00, 
0x00, 0x00, 0x00, 0x00, 
0x00, 0x00, 0x1C, 0x00, 
0x00, 0x00, 0x24, 0x00, 
0x00, 0x00, 0x20, 0x00, 
0x00, 0x00, 0x10, 0x00, 
0x00, 0x00, 0x08, 0x00, 
0x00, 0x00, 0x04, 0x00, 
0x00, 0x00, 0x3C, 0x00, 
0x00, 0x00, 0x00, 0x00, 
0x00, 0x00, 0x00, 0x00, 
0x00, 0x00, 0x00, 0x00, 
0x00, 0x00, 0x1C, 0x00, 
0x00, 0x00, 0x24, 0x00, 
0x00, 0x00, 0x20, 0x00, 
0x00, 0x00, 0x10, 0x00, 
0x00, 0x00, 0x08, 0x00, 
0x00, 0x00, 0x04, 0x00, 
0x00, 0x00, 0x3C, 0x00, 
0x00, 0x00, 0x00, 0x00, 
0x00, 0x00, 0x00, 0x00, 
0x00, 0x00, 0x00, 0x00, 
0x00, 0x00, 0x1C, 0x00, 
0x00, 0x00, 0x24, 0x00, 
0x00, 0x00, 0x20, 0x00, 
0x00, 0x00, 0x10, 0x00, 
0x00, 0x00, 0x08, 0x00, 
0x00, 0x00, 0x04, 0x00, 
0x00, 0x00, 0x3C, 0x00, 
}