#define N2_4_width 32
#define N2_4_height 32
static unsigned char N2_4_bits[] = {
0x00, 0x00, 0x00, 0x00, 
0x00, 0x00, 0x00, 0x00, 
0x00, 0x00, 0x00, 0x00, 
0x00, 0x00, 0x00, 0x00, 
0x00, 0x00, 0x00, 0x00, 
0x00, 0x00, 0x80, 0x03, 
0x00, 0x00, 0x80, 0x04, 
0x00, 0x00, 0x00, 0x04, 
0x00, 0x00, 0x00, 0x02, 
0x00, 0x00, 0x00, 0x01, 
0x00, 0x00, 0x80, 0x00, 
0x00, 0x00, 0x80, 0x07, 
0x00, 0x00, 0x00, 0x00, 
0x00, 0x00, 0x00, 0x00, 
0x00, 0x00, 0x00, 0x00, 
0x00, 0x00, 0x80, 0x03, 
0x00, 0x00, 0x80, 0x04, 
0x00, 0x00, 0x00, 0x04, 
0x00, 0x00, 0x00, 0x02, 
0x00, 0x00, 0x00, 0x01, 
0x00, 0x00, 0x80, 0x00, 
0x00, 0x00, 0x80, 0x07, 
0x00, 0x00, 0x00, 0x00, 
0x00, 0x00, 0x00, 0x00, 
0x00, 0x00, 0x00, 0x00, 
0x00, 0x00, 0x80, 0x03, 
0x00, 0x00, 0x80, 0x04, 
0x00, 0x00, 0x00, 0x04, 
0x00, 0x00, 0x00, 0x02, 
0x00, 0x00, 0x00, 0x01, 
0x00, 0x00, 0x80, 0x00, 
0x00, 0x00, 0x80, 0x07, 
}