#define N4_width 32
#define N4_height 32
static unsigned char N4_bits[] = {
0x00, 0x00, 0x00, 0x00, 
0x00, 0x00, 0x00, 0x00, 
0x00, 0x00, 0x00, 0x00, 
0x00, 0x00, 0x00, 0x00, 
0x00, 0x00, 0x00, 0x00, 
0x48, 0x00, 0x00, 0x00, 
0x48, 0x00, 0x00, 0x00, 
0x48, 0x00, 0x00, 0x00, 
0xF8, 0x00, 0x00, 0x00, 
0x40, 0x00, 0x00, 0x00, 
0x40, 0x00, 0x00, 0x00, 
0x40, 0x00, 0x00, 0x00, 
0x00, 0x00, 0x00, 0x00, 
0x00, 0x00, 0x00, 0x00, 
0x00, 0x00, 0x00, 0x00, 
0x48, 0x00, 0x00, 0x00, 
0x48, 0x00, 0x00, 0x00, 
0x48, 0x00, 0x00, 0x00, 
0xF8, 0x00, 0x00, 0x00, 
0x40, 0x00, 0x00, 0x00, 
0x40, 0x00, 0x00, 0x00, 
0x40, 0x00, 0x00, 0x00, 
0x00, 0x00, 0x00, 0x00, 
0x00, 0x00, 0x00, 0x00, 
0x00, 0x00, 0x00, 0x00, 
0x48, 0x00, 0x00, 0x00, 
0x48, 0x00, 0x00, 0x00, 
0x48, 0x00, 0x00, 0x00, 
0xF8, 0x00, 0x00, 0x00, 
0x40, 0x00, 0x00, 0x00, 
0x40, 0x00, 0x00, 0x00, 
0x40, 0x00, 0x00, 0x00, 
}