#define N4_1_width 32
#define N4_1_height 32
static unsigned char N4_1_bits[] = {
0x00, 0x00, 0x00, 0x00, 
0x00, 0x00, 0x00, 0x00, 
0x00, 0x00, 0x00, 0x00, 
0x00, 0x00, 0x00, 0x00, 
0x00, 0x00, 0x00, 0x00, 
0x00, 0x09, 0x00, 0x00, 
0x00, 0x09, 0x00, 0x00, 
0x00, 0x09, 0x00, 0x00, 
0x00, 0x1F, 0x00, 0x00, 
0x00, 0x08, 0x00, 0x00, 
0x00, 0x08, 0x00, 0x00, 
0x00, 0x08, 0x00, 0x00, 
0x00, 0x00, 0x00, 0x00, 
0x00, 0x00, 0x00, 0x00, 
0x00, 0x00, 0x00, 0x00, 
0x00, 0x09, 0x00, 0x00, 
0x00, 0x09, 0x00, 0x00, 
0x00, 0x09, 0x00, 0x00, 
0x00, 0x1F, 0x00, 0x00, 
0x00, 0x08, 0x00, 0x00, 
0x00, 0x08, 0x00, 0x00, 
0x00, 0x08, 0x00, 0x00, 
0x00, 0x00, 0x00, 0x00, 
0x00, 0x00, 0x00, 0x00, 
0x00, 0x00, 0x00, 0x00, 
0x00, 0x09, 0x00, 0x00, 
0x00, 0x09, 0x00, 0x00, 
0x00, 0x09, 0x00, 0x00, 
0x00, 0x1F, 0x00, 0x00, 
0x00, 0x08, 0x00, 0x00, 
0x00, 0x08, 0x00, 0x00, 
0x00, 0x08, 0x00, 0x00, 
}