#define N4_2_width 32
#define N4_2_height 32
static unsigned char N4_2_bits[] = {
0x00, 0x00, 0x00, 0x00, 
0x00, 0x00, 0x00, 0x00, 
0x00, 0x00, 0x00, 0x00, 
0x00, 0x00, 0x00, 0x00, 
0x00, 0x00, 0x00, 0x00, 
0x00, 0x20, 0x01, 0x00, 
0x00, 0x20, 0x01, 0x00, 
0x00, 0x20, 0x01, 0x00, 
0x00, 0xE0, 0x03, 0x00, 
0x00, 0x00, 0x01, 0x00, 
0x00, 0x00, 0x01, 0x00, 
0x00, 0x00, 0x01, 0x00, 
0x00, 0x00, 0x00, 0x00, 
0x00, 0x00, 0x00, 0x00, 
0x00, 0x00, 0x00, 0x00, 
0x00, 0x20, 0x01, 0x00, 
0x00, 0x20, 0x01, 0x00, 
0x00, 0x20, 0x01, 0x00, 
0x00, 0xE0, 0x03, 0x00, 
0x00, 0x00, 0x01, 0x00, 
0x00, 0x00, 0x01, 0x00, 
0x00, 0x00, 0x01, 0x00, 
0x00, 0x00, 0x00, 0x00, 
0x00, 0x00, 0x00, 0x00, 
0x00, 0x00, 0x00, 0x00, 
0x00, 0x20, 0x01, 0x00, 
0x00, 0x20, 0x01, 0x00, 
0x00, 0x20, 0x01, 0x00, 
0x00, 0xE0, 0x03, 0x00, 
0x00, 0x00, 0x01, 0x00, 
0x00, 0x00, 0x01, 0x00, 
0x00, 0x00, 0x01, 0x00, 
}