#define N4_3_width 32
#define N4_3_height 32
static unsigned char N4_3_bits[] = {
0x00, 0x00, 0x00, 0x00, 
0x00, 0x00, 0x00, 0x00, 
0x00, 0x00, 0x00, 0x00, 
0x00, 0x00, 0x00, 0x00, 
0x00, 0x00, 0x00, 0x00, 
0x00, 0x00, 0x24, 0x00, 
0x00, 0x00, 0x24, 0x00, 
0x00, 0x00, 0x24, 0x00, 
0x00, 0x00, 0x7C, 0x00, 
0x00, 0x00, 0x20, 0x00, 
0x00, 0x00, 0x20, 0x00, 
0x00, 0x00, 0x20, 0x00, 
0x00, 0x00, 0x00, 0x00, 
0x00, 0x00, 0x00, 0x00, 
0x00, 0x00, 0x00, 0x00, 
0x00, 0x00, 0x24, 0x00, 
0x00, 0x00, 0x24, 0x00, 
0x00, 0x00, 0x24, 0x00, 
0x00, 0x00, 0x7C, 0x00, 
0x00, 0x00, 0x20, 0x00, 
0x00, 0x00, 0x20, 0x00, 
0x00, 0x00, 0x20, 0x00, 
0x00, 0x00, 0x00, 0x00, 
0x00, 0x00, 0x00, 0x00, 
0x00, 0x00, 0x00, 0x00, 
0x00, 0x00, 0x24, 0x00, 
0x00, 0x00, 0x24, 0x00, 
0x00, 0x00, 0x24, 0x00, 
0x00, 0x00, 0x7C, 0x00, 
0x00, 0x00, 0x20, 0x00, 
0x00, 0x00, 0x20, 0x00, 
0x00, 0x00, 0x20, 0x00, 
}