#define N4_4_width 32
#define N4_4_height 32
static unsigned char N4_4_bits[] = {
0x00, 0x00, 0x00, 0x00, 
0x00, 0x00, 0x00, 0x00, 
0x00, 0x00, 0x00, 0x00, 
0x00, 0x00, 0x00, 0x00, 
0x00, 0x00, 0x00, 0x00, 
0x00, 0x00, 0x80, 0x04, 
0x00, 0x00, 0x80, 0x04, 
0x00, 0x00, 0x80, 0x04, 
0x00, 0x00, 0x80, 0x0F, 
0x00, 0x00, 0x00, 0x04, 
0x00, 0x00, 0x00, 0x04, 
0x00, 0x00, 0x00, 0x04, 
0x00, 0x00, 0x00, 0x00, 
0x00, 0x00, 0x00, 0x00, 
0x00, 0x00, 0x00, 0x00, 
0x00, 0x00, 0x80, 0x04, 
0x00, 0x00, 0x80, 0x04, 
0x00, 0x00, 0x80, 0x04, 
0x00, 0x00, 0x80, 0x0F, 
0x00, 0x00, 0x00, 0x04, 
0x00, 0x00, 0x00, 0x04, 
0x00, 0x00, 0x00, 0x04, 
0x00, 0x00, 0x00, 0x00, 
0x00, 0x00, 0x00, 0x00, 
0x00, 0x00, 0x00, 0x00, 
0x00, 0x00, 0x80, 0x04, 
0x00, 0x00, 0x80, 0x04, 
0x00, 0x00, 0x80, 0x04, 
0x00, 0x00, 0x80, 0x0F, 
0x00, 0x00, 0x00, 0x04, 
0x00, 0x00, 0x00, 0x04, 
0x00, 0x00, 0x00, 0x04, 
}