#define N8_width 32
#define N8_height 32
static unsigned char N8_bits[] = {
0x00, 0x00, 0x00, 0x00, 
0x00, 0x00, 0x00, 0x00, 
0x00, 0x00, 0x00, 0x00, 
0x00, 0x00, 0x00, 0x00, 
0x00, 0x00, 0x00, 0x00, 
0x70, 0x00, 0x00, 0x00, 
0x88, 0x00, 0x00, 0x00, 
0x88, 0x00, 0x00, 0x00, 
0x70, 0x00, 0x00, 0x00, 
0x88, 0x00, 0x00, 0x00, 
0x88, 0x00, 0x00, 0x00, 
0x70, 0x00, 0x00, 0x00, 
0x00, 0x00, 0x00, 0x00, 
0x00, 0x00, 0x00, 0x00, 
0x00, 0x00, 0x00, 0x00, 
0x70, 0x00, 0x00, 0x00, 
0x88, 0x00, 0x00, 0x00, 
0x88, 0x00, 0x00, 0x00, 
0x70, 0x00, 0x00, 0x00, 
0x88, 0x00, 0x00, 0x00, 
0x88, 0x00, 0x00, 0x00, 
0x70, 0x00, 0x00, 0x00, 
0x00, 0x00, 0x00, 0x00, 
0x00, 0x00, 0x00, 0x00, 
0x00, 0x00, 0x00, 0x00, 
0x70, 0x00, 0x00, 0x00, 
0x88, 0x00, 0x00, 0x00, 
0x88, 0x00, 0x00, 0x00, 
0x70, 0x00, 0x00, 0x00, 
0x88, 0x00, 0x00, 0x00, 
0x88, 0x00, 0x00, 0x00, 
0x70, 0x00, 0x00, 0x00, 
}