#define N8_1_width 32
#define N8_1_height 32
static unsigned char N8_1_bits[] = {
0x00, 0x00, 0x00, 0x00, 
0x00, 0x00, 0x00, 0x00, 
0x00, 0x00, 0x00, 0x00, 
0x00, 0x00, 0x00, 0x00, 
0x00, 0x00, 0x00, 0x00, 
0x00, 0x0E, 0x00, 0x00, 
0x00, 0x11, 0x00, 0x00, 
0x00, 0x11, 0x00, 0x00, 
0x00, 0x0E, 0x00, 0x00, 
0x00, 0x11, 0x00, 0x00, 
0x00, 0x11, 0x00, 0x00, 
0x00, 0x0E, 0x00, 0x00, 
0x00, 0x00, 0x00, 0x00, 
0x00, 0x00, 0x00, 0x00, 
0x00, 0x00, 0x00, 0x00, 
0x00, 0x0E, 0x00, 0x00, 
0x00, 0x11, 0x00, 0x00, 
0x00, 0x11, 0x00, 0x00, 
0x00, 0x0E, 0x00, 0x00, 
0x00, 0x11, 0x00, 0x00, 
0x00, 0x11, 0x00, 0x00, 
0x00, 0x0E, 0x00, 0x00, 
0x00, 0x00, 0x00, 0x00, 
0x00, 0x00, 0x00, 0x00, 
0x00, 0x00, 0x00, 0x00, 
0x00, 0x0E, 0x00, 0x00, 
0x00, 0x11, 0x00, 0x00, 
0x00, 0x11, 0x00, 0x00, 
0x00, 0x0E, 0x00, 0x00, 
0x00, 0x11, 0x00, 0x00, 
0x00, 0x11, 0x00, 0x00, 
0x00, 0x0E, 0x00, 0x00, 
}