#define N8_3_width 32
#define N8_3_height 32
static unsigned char N8_3_bits[] = {
0x00, 0x00, 0x00, 0x00, 
0x00, 0x00, 0x00, 0x00, 
0x00, 0x00, 0x00, 0x00, 
0x00, 0x00, 0x00, 0x00, 
0x00, 0x00, 0x00, 0x00, 
0x00, 0x00, 0x38, 0x00, 
0x00, 0x00, 0x44, 0x00, 
0x00, 0x00, 0x44, 0x00, 
0x00, 0x00, 0x38, 0x00, 
0x00, 0x00, 0x44, 0x00, 
0x00, 0x00, 0x44, 0x00, 
0x00, 0x00, 0x38, 0x00, 
0x00, 0x00, 0x00, 0x00, 
0x00, 0x00, 0x00, 0x00, 
0x00, 0x00, 0x00, 0x00, 
0x00, 0x00, 0x38, 0x00, 
0x00, 0x00, 0x44, 0x00, 
0x00, 0x00, 0x44, 0x00, 
0x00, 0x00, 0x38, 0x00, 
0x00, 0x00, 0x44, 0x00, 
0x00, 0x00, 0x44, 0x00, 
0x00, 0x00, 0x38, 0x00, 
0x00, 0x00, 0x00, 0x00, 
0x00, 0x00, 0x00, 0x00, 
0x00, 0x00, 0x00, 0x00, 
0x00, 0x00, 0x38, 0x00, 
0x00, 0x00, 0x44, 0x00, 
0x00, 0x00, 0x44, 0x00, 
0x00, 0x00, 0x38, 0x00, 
0x00, 0x00, 0x44, 0x00, 
0x00, 0x00, 0x44, 0x00, 
0x00, 0x00, 0x38, 0x00, 
}