#define NF_width 32
#define NF_height 32
static unsigned char NF_bits[] = {
0x00, 0x00, 0x00, 0x00, 
0x00, 0x00, 0x00, 0x00, 
0x00, 0x00, 0x00, 0x00, 
0x00, 0x00, 0x00, 0x00, 
0x00, 0x00, 0x00, 0x00, 
0xF0, 0x01, 0x00, 0x00, 
0x10, 0x00, 0x00, 0x00, 
0x10, 0x00, 0x00, 0x00, 
0xF0, 0x00, 0x00, 0x00, 
0x10, 0x00, 0x00, 0x00, 
0x10, 0x00, 0x00, 0x00, 
0x10, 0x00, 0x00, 0x00, 
0x00, 0x00, 0x00, 0x00, 
0x00, 0x00, 0x00, 0x00, 
0x00, 0x00, 0x00, 0x00, 
0xF0, 0x01, 0x00, 0x00, 
0x10, 0x00, 0x00, 0x00, 
0x10, 0x00, 0x00, 0x00, 
0xF0, 0x00, 0x00, 0x00, 
0x10, 0x00, 0x00, 0x00, 
0x10, 0x00, 0x00, 0x00, 
0x10, 0x00, 0x00, 0x00, 
0x00, 0x00, 0x00, 0x00, 
0x00, 0x00, 0x00, 0x00, 
0x00, 0x00, 0x00, 0x00, 
0xF0, 0x01, 0x00, 0x00, 
0x10, 0x00, 0x00, 0x00, 
0x10, 0x00, 0x00, 0x00, 
0xF0, 0x00, 0x00, 0x00, 
0x10, 0x00, 0x00, 0x00, 
0x10, 0x00, 0x00, 0x00, 
0x10, 0x00, 0x00, 0x00, 
}