#define NF_1_width 32
#define NF_1_height 32
static unsigned char NF_1_bits[] = {
0x00, 0x00, 0x00, 0x00, 
0x00, 0x00, 0x00, 0x00, 
0x00, 0x00, 0x00, 0x00, 
0x00, 0x00, 0x00, 0x00, 
0x00, 0x00, 0x00, 0x00, 
0x00, 0x3E, 0x00, 0x00, 
0x00, 0x02, 0x00, 0x00, 
0x00, 0x02, 0x00, 0x00, 
0x00, 0x1E, 0x00, 0x00, 
0x00, 0x02, 0x00, 0x00, 
0x00, 0x02, 0x00, 0x00, 
0x00, 0x02, 0x00, 0x00, 
0x00, 0x00, 0x00, 0x00, 
0x00, 0x00, 0x00, 0x00, 
0x00, 0x00, 0x00, 0x00, 
0x00, 0x3E, 0x00, 0x00, 
0x00, 0x02, 0x00, 0x00, 
0x00, 0x02, 0x00, 0x00, 
0x00, 0x1E, 0x00, 0x00, 
0x00, 0x02, 0x00, 0x00, 
0x00, 0x02, 0x00, 0x00, 
0x00, 0x02, 0x00, 0x00, 
0x00, 0x00, 0x00, 0x00, 
0x00, 0x00, 0x00, 0x00, 
0x00, 0x00, 0x00, 0x00, 
0x00, 0x3E, 0x00, 0x00, 
0x00, 0x02, 0x00, 0x00, 
0x00, 0x02, 0x00, 0x00, 
0x00, 0x1E, 0x00, 0x00, 
0x00, 0x02, 0x00, 0x00, 
0x00, 0x02, 0x00, 0x00, 
0x00, 0x02, 0x00, 0x00, 
}