#define NF_2_width 32
#define NF_2_height 32
static unsigned char NF_2_bits[] = {
0x00, 0x00, 0x00, 0x00, 
0x00, 0x00, 0x00, 0x00, 
0x00, 0x00, 0x00, 0x00, 
0x00, 0x00, 0x00, 0x00, 
0x00, 0x00, 0x00, 0x00, 
0x00, 0xC0, 0x07, 0x00, 
0x00, 0x40, 0x00, 0x00, 
0x00, 0x40, 0x00, 0x00, 
0x00, 0xC0, 0x03, 0x00, 
0x00, 0x40, 0x00, 0x00, 
0x00, 0x40, 0x00, 0x00, 
0x00, 0x40, 0x00, 0x00, 
0x00, 0x00, 0x00, 0x00, 
0x00, 0x00, 0x00, 0x00, 
0x00, 0x00, 0x00, 0x00, 
0x00, 0xC0, 0x07, 0x00, 
0x00, 0x40, 0x00, 0x00, 
0x00, 0x40, 0x00, 0x00, 
0x00, 0xC0, 0x03, 0x00, 
0x00, 0x40, 0x00, 0x00, 
0x00, 0x40, 0x00, 0x00, 
0x00, 0x40, 0x00, 0x00, 
0x00, 0x00, 0x00, 0x00, 
0x00, 0x00, 0x00, 0x00, 
0x00, 0x00, 0x00, 0x00, 
0x00, 0xC0, 0x07, 0x00, 
0x00, 0x40, 0x00, 0x00, 
0x00, 0x40, 0x00, 0x00, 
0x00, 0xC0, 0x03, 0x00, 
0x00, 0x40, 0x00, 0x00, 
0x00, 0x40, 0x00, 0x00, 
0x00, 0x40, 0x00, 0x00, 
}