#define NF_3_width 32
#define NF_3_height 32
static unsigned char NF_3_bits[] = {
0x00, 0x00, 0x00, 0x00, 
0x00, 0x00, 0x00, 0x00, 
0x00, 0x00, 0x00, 0x00, 
0x00, 0x00, 0x00, 0x00, 
0x00, 0x00, 0x00, 0x00, 
0x00, 0x00, 0xF8, 0x00, 
0x00, 0x00, 0x08, 0x00, 
0x00, 0x00, 0x08, 0x00, 
0x00, 0x00, 0x78, 0x00, 
0x00, 0x00, 0x08, 0x00, 
0x00, 0x00, 0x08, 0x00, 
0x00, 0x00, 0x08, 0x00, 
0x00, 0x00, 0x00, 0x00, 
0x00, 0x00, 0x00, 0x00, 
0x00, 0x00, 0x00, 0x00, 
0x00, 0x00, 0xF8, 0x00, 
0x00, 0x00, 0x08, 0x00, 
0x00, 0x00, 0x08, 0x00, 
0x00, 0x00, 0x78, 0x00, 
0x00, 0x00, 0x08, 0x00, 
0x00, 0x00, 0x08, 0x00, 
0x00, 0x00, 0x08, 0x00, 
0x00, 0x00, 0x00, 0x00, 
0x00, 0x00, 0x00, 0x00, 
0x00, 0x00, 0x00, 0x00, 
0x00, 0x00, 0xF8, 0x00, 
0x00, 0x00, 0x08, 0x00, 
0x00, 0x00, 0x08, 0x00, 
0x00, 0x00, 0x78, 0x00, 
0x00, 0x00, 0x08, 0x00, 
0x00, 0x00, 0x08, 0x00, 
0x00, 0x00, 0x08, 0x00, 
}