#define NF_4_width 32
#define NF_4_height 32
static unsigned char NF_4_bits[] = {
0x00, 0x00, 0x00, 0x00, 
0x00, 0x00, 0x00, 0x00, 
0x00, 0x00, 0x00, 0x00, 
0x00, 0x00, 0x00, 0x00, 
0x00, 0x00, 0x00, 0x00, 
0x00, 0x00, 0x00, 0x1F, 
0x00, 0x00, 0x00, 0x01, 
0x00, 0x00, 0x00, 0x01, 
0x00, 0x00, 0x00, 0x0F, 
0x00, 0x00, 0x00, 0x01, 
0x00, 0x00, 0x00, 0x01, 
0x00, 0x00, 0x00, 0x01, 
0x00, 0x00, 0x00, 0x00, 
0x00, 0x00, 0x00, 0x00, 
0x00, 0x00, 0x00, 0x00, 
0x00, 0x00, 0x00, 0x1F, 
0x00, 0x00, 0x00, 0x01, 
0x00, 0x00, 0x00, 0x01, 
0x00, 0x00, 0x00, 0x0F, 
0x00, 0x00, 0x00, 0x01, 
0x00, 0x00, 0x00, 0x01, 
0x00, 0x00, 0x00, 0x01, 
0x00, 0x00, 0x00, 0x00, 
0x00, 0x00, 0x00, 0x00, 
0x00, 0x00, 0x00, 0x00, 
0x00, 0x00, 0x00, 0x1F, 
0x00, 0x00, 0x00, 0x01, 
0x00, 0x00, 0x00, 0x01, 
0x00, 0x00, 0x00, 0x0F, 
0x00, 0x00, 0x00, 0x01, 
0x00, 0x00, 0x00, 0x01, 
0x00, 0x00, 0x00, 0x01, 
}