#define NSTDDIAMOND_width 16
#define NSTDDIAMOND_height 16
static unsigned char NSTDDIAMOND_bits[] = {
0x00, 0x00, 
0x00, 0x00, 
0x40, 0x00, 
0xA0, 0x00, 
0x10, 0x01, 
0x48, 0x02, 
0xA4, 0x04, 
0x12, 0x09, 
0xA4, 0x04, 
0x48, 0x02, 
0x10, 0x01, 
0xA0, 0x00, 
0x40, 0x00, 
0x00, 0x00, 
0x00, 0x00, 
0x00, 0x00, 
}