#define NSTDDIAMOND_1_width 16
#define NSTDDIAMOND_1_height 16
static unsigned char NSTDDIAMOND_1_bits[] = {
0x00, 0x00, 
0x00, 0x00, 
0x00, 0x04, 
0x00, 0x0A, 
0x00, 0x11, 
0x80, 0x24, 
0x40, 0x4A, 
0x20, 0x91, 
0x40, 0x4A, 
0x80, 0x24, 
0x00, 0x11, 
0x00, 0x0A, 
0x00, 0x04, 
0x00, 0x00, 
0x00, 0x00, 
0x00, 0x00, 
}