#define NSTDSQUARE_width 16
#define NSTDSQUARE_height 16
static unsigned char NSTDSQUARE_bits[] = {
0x00, 0x00, 
0xFE, 0x7F, 
0x02, 0x40, 
0xFA, 0x5F, 
0x0A, 0x50, 
0xEA, 0x57, 
0x2A, 0x54, 
0x2A, 0x54, 
0x2A, 0x54, 
0x2A, 0x54, 
0xEA, 0x57, 
0x0A, 0x50, 
0xFA, 0x5F, 
0x02, 0x40, 
0xFE, 0x7F, 
0x00, 0x00, 
}