#define OCTOGON_width 16
#define OCTOGON_height 16
static unsigned char OCTOGON_bits[] = {
0x00, 0x00, 
0x00, 0x00, 
0xE0, 0x03, 
0x10, 0x04, 
0x08, 0x08, 
0x04, 0x10, 
0x02, 0x20, 
0x02, 0x20, 
0x02, 0x20, 
0x02, 0x20, 
0x02, 0x20, 
0x04, 0x10, 
0x08, 0x08, 
0x10, 0x04, 
0xE0, 0x03, 
0x00, 0x00, 
}