#define RHZIGZAG_width 16
#define RHZIGZAG_height 16
static unsigned char RHZIGZAG_bits[] = {
0xC0, 0xC0, 
0x20, 0x20, 
0x18, 0x18, 
0x04, 0x04, 
0x03, 0x03, 
0x80, 0x80, 
0x60, 0x60, 
0x10, 0x10, 
0x0C, 0x0C, 
0x02, 0x02, 
0x81, 0x81, 
0x40, 0x40, 
0x30, 0x30, 
0x08, 0x08, 
0x06, 0x06, 
0x01, 0x01, 
}