#define RTRIANGLE_1_width 16
#define RTRIANGLE_1_height 16
static unsigned char RTRIANGLE_1_bits[] = {
0x00, 0x00, 
0x00, 0x00, 
0x0F, 0xF8, 
0x04, 0x10, 
0x02, 0x20, 
0x01, 0x40, 
0x00, 0x80, 
0x00, 0x00, 
0x00, 0x00, 
0x00, 0x00, 
0xF0, 0x1F, 
0x20, 0x08, 
0x40, 0x04, 
0x80, 0x02, 
0x00, 0x01, 
0x00, 0x00, 
}