#define RTRIANGLE_width 16
#define RTRIANGLE_height 16
static unsigned char RTRIANGLE_bits[] = {
0x00, 0x00, 
0x00, 0x00, 
0x80, 0xFF, 
0x00, 0x41, 
0x00, 0x22, 
0x00, 0x14, 
0x00, 0x08, 
0x00, 0x00, 
0x00, 0x00, 
0x00, 0x00, 
0xFF, 0x01, 
0x82, 0x00, 
0x44, 0x00, 
0x28, 0x00, 
0x10, 0x00, 
0x00, 0x00, 
}