#define RVZIGZAG_2_width 16
#define RVZIGZAG_2_height 16
static unsigned char RVZIGZAG_2_bits[] = {
0x08, 0x42, 
0x08, 0x21, 
0x84, 0x20, 
0x82, 0x10, 
0x42, 0x08, 
0x21, 0x08, 
0x20, 0x84, 
0x10, 0x82, 
0x08, 0x42, 
0x08, 0x21, 
0x84, 0x20, 
0x82, 0x10, 
0x42, 0x08, 
0x21, 0x08, 
0x20, 0x84, 
0x10, 0x82, 
}