#define SLANT_width 16
#define SLANT_height 16
static unsigned char SLANT_bits[] = {
0x02, 0x80, 
0x05, 0x00, 
0x0A, 0x00, 
0x14, 0x00, 
0x28, 0x00, 
0x50, 0x00, 
0xA0, 0x00, 
0x40, 0x01, 
0x80, 0x02, 
0x00, 0x05, 
0x00, 0x0A, 
0x00, 0x14, 
0x00, 0x28, 
0x00, 0x50, 
0x00, 0xA0, 
0x01, 0x40, 
}