#define STIPPLE8_width 16
#define STIPPLE8_height 16
static unsigned char STIPPLE8_bits[] = {
0x33, 0x33, 
0x33, 0x33, 
0xCC, 0xCC, 
0xCC, 0xCC, 
0x33, 0x33, 
0x33, 0x33, 
0xCC, 0xCC, 
0xCC, 0xCC, 
0x33, 0x33, 
0x33, 0x33, 
0xCC, 0xCC, 
0xCC, 0xCC, 
0x33, 0x33, 
0x33, 0x33, 
0xCC, 0xCC, 
0xCC, 0xCC, 
}