#define STIPPLE5_width 16
#define STIPPLE5_height 16
static unsigned char STIPPLE5_bits[] = {
0xFF, 0xFF, 
0x00, 0x00, 
0xFF, 0xFF, 
0x00, 0x00, 
0xFF, 0xFF, 
0x00, 0x00, 
0xFF, 0xFF, 
0x00, 0x00, 
0xFF, 0xFF, 
0x00, 0x00, 
0xFF, 0xFF, 
0x00, 0x00, 
0xFF, 0xFF, 
0x00, 0x00, 
0xFF, 0xFF, 
0x00, 0x00, 
}