#define STIPPLE2_width 16
#define STIPPLE2_height 16
static unsigned char STIPPLE2_bits[] = {
0x0F, 0x0F, 
0x0F, 0x0F, 
0x0F, 0x0F, 
0x0F, 0x0F, 
0xF0, 0xF0, 
0xF0, 0xF0, 
0xF0, 0xF0, 
0xF0, 0xF0, 
0x0F, 0x0F, 
0x0F, 0x0F, 
0x0F, 0x0F, 
0x0F, 0x0F, 
0xF0, 0xF0, 
0xF0, 0xF0, 
0xF0, 0xF0, 
0xF0, 0xF0, 
}