#define STIPPLE1_width 16
#define STIPPLE1_height 16
static unsigned char STIPPLE1_bits[] = {
0xFF, 0xFF, 
0x00, 0x00, 
0x00, 0x00, 
0x00, 0x00, 
0xFF, 0xFF, 
0x00, 0x00, 
0x00, 0x00, 
0x00, 0x00, 
0xFF, 0xFF, 
0x00, 0x00, 
0x00, 0x00, 
0x00, 0x00, 
0xFF, 0xFF, 
0x00, 0x00, 
0x00, 0x00, 
0x00, 0x00, 
}