#define STIPPLE4_width 16
#define STIPPLE4_height 16
static unsigned char STIPPLE4_bits[] = {
0x00, 0x00, 
0x55, 0x55, 
0x00, 0x00, 
0x55, 0x55, 
0x00, 0x00, 
0x55, 0x55, 
0x00, 0x00, 
0x55, 0x55, 
0x00, 0x00, 
0x55, 0x55, 
0x00, 0x00, 
0x55, 0x55, 
0x00, 0x00, 
0x55, 0x55, 
0x00, 0x00, 
0x55, 0x55, 
}