#define STIPPLE9_width 16
#define STIPPLE9_height 16
static unsigned char STIPPLE9_bits[] = {
0x11, 0x11, 
0x11, 0x11, 
0x88, 0x88, 
0x88, 0x88, 
0x11, 0x11, 
0x11, 0x11, 
0x88, 0x88, 
0x88, 0x88, 
0x11, 0x11, 
0x11, 0x11, 
0x88, 0x88, 
0x88, 0x88, 
0x11, 0x11, 
0x11, 0x11, 
0x88, 0x88, 
0x88, 0x88, 
}