#define STIPPLE7_width 16
#define STIPPLE7_height 16
static unsigned char STIPPLE7_bits[] = {
0xAA, 0xAA, 
0x00, 0x00, 
0xAA, 0xAA, 
0x00, 0x00, 
0xAA, 0xAA, 
0x00, 0x00, 
0xAA, 0xAA, 
0x00, 0x00, 
0xAA, 0xAA, 
0x00, 0x00, 
0xAA, 0xAA, 
0x00, 0x00, 
0xAA, 0xAA, 
0x00, 0x00, 
0xAA, 0xAA, 
0x00, 0x00, 
}