#define STIPPLE3_width 16
#define STIPPLE3_height 16
static unsigned char STIPPLE3_bits[] = {
0x11, 0x11, 
0x11, 0x11, 
0x11, 0x11, 
0x11, 0x11, 
0x11, 0x11, 
0x11, 0x11, 
0x11, 0x11, 
0x11, 0x11, 
0x11, 0x11, 
0x11, 0x11, 
0x11, 0x11, 
0x11, 0x11, 
0x11, 0x11, 
0x11, 0x11, 
0x11, 0x11, 
0x11, 0x11, 
}