#define TARGET_width 16
#define TARGET_height 16
static unsigned char TARGET_bits[] = {
0x00, 0x00, 
0x00, 0x00, 
0x00, 0x00, 
0x70, 0x00, 
0x88, 0x00, 
0x04, 0x01, 
0x72, 0x02, 
0x72, 0x02, 
0x72, 0x02, 
0x04, 0x01, 
0x88, 0x00, 
0x70, 0x00, 
0x00, 0x00, 
0x00, 0x00, 
0x00, 0x00, 
0x00, 0x00, 
}