#define TARGET_1_width 16
#define TARGET_1_height 16
static unsigned char TARGET_1_bits[] = {
0x00, 0x00, 
0x00, 0x00, 
0x00, 0x00, 
0x00, 0x07, 
0x80, 0x08, 
0x40, 0x10, 
0x20, 0x27, 
0x20, 0x27, 
0x20, 0x27, 
0x40, 0x10, 
0x80, 0x08, 
0x00, 0x07, 
0x00, 0x00, 
0x00, 0x00, 
0x00, 0x00, 
0x00, 0x00, 
}