#define TRIANGLE_width 16
#define TRIANGLE_height 16
static unsigned char TRIANGLE_bits[] = {
0x00, 0x00, 
0x10, 0x00, 
0x28, 0x00, 
0x44, 0x00, 
0x82, 0x00, 
0xFF, 0x01, 
0x00, 0x00, 
0x00, 0x00, 
0x00, 0x00, 
0x00, 0x08, 
0x00, 0x14, 
0x00, 0x22, 
0x00, 0x41, 
0x80, 0xFF, 
0x00, 0x00, 
0x00, 0x00, 
}