#define VBRICK_width 16
#define VBRICK_height 16
static unsigned char VBRICK_bits[] = {
0x88, 0x88, 
0x88, 0x88, 
0xF8, 0xF8, 
0x88, 0x88, 
0x88, 0x88, 
0x88, 0x88, 
0x8F, 0x8F, 
0x88, 0x88, 
0x88, 0x88, 
0x88, 0x88, 
0xF8, 0xF8, 
0x88, 0x88, 
0x88, 0x88, 
0x88, 0x88, 
0x8F, 0x8F, 
0x88, 0x88, 
}