#define VCURB_width 16
#define VCURB_height 16
static unsigned char VCURB_bits[] = {
0x20, 0x20, 
0x20, 0x20, 
0x20, 0x20, 
0x3C, 0x3C, 
0x04, 0x04, 
0x04, 0x04, 
0x04, 0x04, 
0x3C, 0x3C, 
0x20, 0x20, 
0x20, 0x20, 
0x20, 0x20, 
0x3C, 0x3C, 
0x04, 0x04, 
0x04, 0x04, 
0x04, 0x04, 
0x3C, 0x3C, 
}