#define VCURB_1_width 16
#define VCURB_1_height 16
static unsigned char VCURB_1_bits[] = {
0x80, 0x80, 
0x80, 0x80, 
0x80, 0x80, 
0xF0, 0xF0, 
0x10, 0x10, 
0x10, 0x10, 
0x10, 0x10, 
0xF0, 0xF0, 
0x80, 0x80, 
0x80, 0x80, 
0x80, 0x80, 
0xF0, 0xF0, 
0x10, 0x10, 
0x10, 0x10, 
0x10, 0x10, 
0xF0, 0xF0, 
}