#define VDASH_2_width 8
#define VDASH_2_height 8
static unsigned char VDASH_2_bits[] = {
0x10, 
0x10, 
0x10, 
0x10, 
0x10, 
0x10, 
0x00, 
0x00, 
}