#define VDASH_width 8
#define VDASH_height 8
static unsigned char VDASH_bits[] = {
0x01, 
0x01, 
0x01, 
0x01, 
0x01, 
0x01, 
0x00, 
0x00, 
}