#define VDD_width 16
#define VDD_height 16
static unsigned char VDD_bits[] = {
0x00, 0x00, 
0x00, 0x00, 
0x00, 0x00, 
0x00, 0x00, 
0xFC, 0x1F, 
0x80, 0x00, 
0x80, 0x00, 
0x80, 0x00, 
0x80, 0x00, 
0x80, 0x00, 
0x80, 0x00, 
0x80, 0x00, 
0x00, 0x00, 
0x00, 0x00, 
0x00, 0x00, 
0x00, 0x00, 
}