#define VLINE_width 16
#define VLINE_height 16
static unsigned char VLINE_bits[] = {
0x44, 0x44, 
0x44, 0x44, 
0x44, 0x44, 
0x44, 0x44, 
0x44, 0x44, 
0x44, 0x44, 
0x44, 0x44, 
0x44, 0x44, 
0x44, 0x44, 
0x44, 0x44, 
0x44, 0x44, 
0x44, 0x44, 
0x44, 0x44, 
0x44, 0x44, 
0x44, 0x44, 
0x44, 0x44, 
}