#define VLINE_1_width 16
#define VLINE_1_height 16
static unsigned char VLINE_1_bits[] = {
0x11, 0x11, 
0x11, 0x11, 
0x11, 0x11, 
0x11, 0x11, 
0x11, 0x11, 
0x11, 0x11, 
0x11, 0x11, 
0x11, 0x11, 
0x11, 0x11, 
0x11, 0x11, 
0x11, 0x11, 
0x11, 0x11, 
0x11, 0x11, 
0x11, 0x11, 
0x11, 0x11, 
0x11, 0x11, 
}