#define VWAVEY_width 16
#define VWAVEY_height 16
static unsigned char VWAVEY_bits[] = {
0xCC, 0xCC, 
0x00, 0x00, 
0x00, 0x00, 
0x33, 0x33, 
0xCC, 0xCC, 
0x00, 0x00, 
0x00, 0x00, 
0x33, 0x33, 
0xCC, 0xCC, 
0x00, 0x00, 
0x00, 0x00, 
0x33, 0x33, 
0xCC, 0xCC, 
0x00, 0x00, 
0x00, 0x00, 
0x33, 0x33, 
}