#define VZIGZAG_width 16
#define VZIGZAG_height 16
static unsigned char VZIGZAG_bits[] = {
0x21, 0x04, 
0x41, 0x08, 
0x42, 0x10, 
0x84, 0x10, 
0x04, 0x21, 
0x08, 0x41, 
0x10, 0x42, 
0x10, 0x84, 
0x21, 0x04, 
0x41, 0x08, 
0x42, 0x10, 
0x84, 0x10, 
0x04, 0x21, 
0x08, 0x41, 
0x10, 0x42, 
0x10, 0x84, 
}